<mxfile host="app.diagrams.net" modified="2021-07-12T16:25:47.899Z" agent="5.0 (Windows NT 10.0; Win64; x64) AppleWebKit/537.36 (KHTML, like Gecko) Chrome/91.0.4472.124 Safari/537.36" etag="XuuLjnXk7xl3bL1qo2jk" version="14.8.5" type="github">
  <diagram id="4FkXJ6ISbHNL8Xndola9" name="Page-1">
    <mxGraphModel dx="782" dy="411" grid="1" gridSize="10" guides="1" tooltips="1" connect="1" arrows="1" fold="1" page="1" pageScale="1" pageWidth="850" pageHeight="1100" math="0" shadow="0">
      <root>
        <mxCell id="0" />
        <mxCell id="1" parent="0" />
        <mxCell id="4U3-XLHN7mHAFCMIfKig-24" value="" style="rounded=0;whiteSpace=wrap;html=1;dashed=1;dashPattern=1 1;" vertex="1" parent="1">
          <mxGeometry x="550" y="20" width="260" height="360" as="geometry" />
        </mxCell>
        <mxCell id="4U3-XLHN7mHAFCMIfKig-5" style="edgeStyle=orthogonalEdgeStyle;rounded=0;orthogonalLoop=1;jettySize=auto;html=1;entryX=0;entryY=0.5;entryDx=0;entryDy=0;" edge="1" parent="1" source="4U3-XLHN7mHAFCMIfKig-1" target="4U3-XLHN7mHAFCMIfKig-2">
          <mxGeometry relative="1" as="geometry" />
        </mxCell>
        <mxCell id="4U3-XLHN7mHAFCMIfKig-6" style="edgeStyle=orthogonalEdgeStyle;rounded=0;orthogonalLoop=1;jettySize=auto;html=1;entryX=0;entryY=0.5;entryDx=0;entryDy=0;" edge="1" parent="1" source="4U3-XLHN7mHAFCMIfKig-1" target="4U3-XLHN7mHAFCMIfKig-3">
          <mxGeometry relative="1" as="geometry" />
        </mxCell>
        <mxCell id="4U3-XLHN7mHAFCMIfKig-1" value="Actor" style="shape=umlActor;verticalLabelPosition=bottom;verticalAlign=top;html=1;outlineConnect=0;" vertex="1" parent="1">
          <mxGeometry x="120" y="110" width="20" height="50" as="geometry" />
        </mxCell>
        <mxCell id="4U3-XLHN7mHAFCMIfKig-2" value="Aplikasi Merchant" style="rounded=0;whiteSpace=wrap;html=1;" vertex="1" parent="1">
          <mxGeometry x="220" y="60" width="120" height="60" as="geometry" />
        </mxCell>
        <mxCell id="4U3-XLHN7mHAFCMIfKig-18" style="edgeStyle=orthogonalEdgeStyle;rounded=0;orthogonalLoop=1;jettySize=auto;html=1;entryX=0;entryY=0.5;entryDx=0;entryDy=0;" edge="1" parent="1" source="4U3-XLHN7mHAFCMIfKig-3" target="4U3-XLHN7mHAFCMIfKig-11">
          <mxGeometry relative="1" as="geometry" />
        </mxCell>
        <mxCell id="4U3-XLHN7mHAFCMIfKig-19" style="edgeStyle=orthogonalEdgeStyle;rounded=0;orthogonalLoop=1;jettySize=auto;html=1;entryX=0;entryY=0.5;entryDx=0;entryDy=0;" edge="1" parent="1" source="4U3-XLHN7mHAFCMIfKig-3" target="4U3-XLHN7mHAFCMIfKig-12">
          <mxGeometry relative="1" as="geometry" />
        </mxCell>
        <mxCell id="4U3-XLHN7mHAFCMIfKig-3" value="Aplikasi Mobile" style="rounded=0;whiteSpace=wrap;html=1;" vertex="1" parent="1">
          <mxGeometry x="220" y="170" width="120" height="60" as="geometry" />
        </mxCell>
        <mxCell id="4U3-XLHN7mHAFCMIfKig-20" style="edgeStyle=orthogonalEdgeStyle;rounded=0;orthogonalLoop=1;jettySize=auto;html=1;entryX=0;entryY=0.5;entryDx=0;entryDy=0;" edge="1" parent="1" source="4U3-XLHN7mHAFCMIfKig-10" target="4U3-XLHN7mHAFCMIfKig-13">
          <mxGeometry relative="1" as="geometry" />
        </mxCell>
        <mxCell id="4U3-XLHN7mHAFCMIfKig-10" value="&lt;span&gt;Register VA untuk tagihan pemesanan&lt;/span&gt;" style="ellipse;whiteSpace=wrap;html=1;" vertex="1" parent="1">
          <mxGeometry x="400" y="60" width="90" height="60" as="geometry" />
        </mxCell>
        <mxCell id="4U3-XLHN7mHAFCMIfKig-21" style="edgeStyle=orthogonalEdgeStyle;rounded=0;orthogonalLoop=1;jettySize=auto;html=1;entryX=0;entryY=0.5;entryDx=0;entryDy=0;" edge="1" parent="1" source="4U3-XLHN7mHAFCMIfKig-11" target="4U3-XLHN7mHAFCMIfKig-13">
          <mxGeometry relative="1" as="geometry">
            <Array as="points">
              <mxPoint x="540" y="200" />
              <mxPoint x="540" y="90" />
            </Array>
          </mxGeometry>
        </mxCell>
        <mxCell id="4U3-XLHN7mHAFCMIfKig-11" value="&lt;span&gt;get nomer akun, saldo&lt;/span&gt;" style="ellipse;whiteSpace=wrap;html=1;" vertex="1" parent="1">
          <mxGeometry x="410" y="170" width="100" height="60" as="geometry" />
        </mxCell>
        <mxCell id="4U3-XLHN7mHAFCMIfKig-22" style="edgeStyle=orthogonalEdgeStyle;rounded=0;orthogonalLoop=1;jettySize=auto;html=1;entryX=0;entryY=0.5;entryDx=0;entryDy=0;" edge="1" parent="1" source="4U3-XLHN7mHAFCMIfKig-12" target="4U3-XLHN7mHAFCMIfKig-13">
          <mxGeometry relative="1" as="geometry">
            <Array as="points">
              <mxPoint x="540" y="300" />
              <mxPoint x="540" y="90" />
            </Array>
          </mxGeometry>
        </mxCell>
        <mxCell id="4U3-XLHN7mHAFCMIfKig-12" value="pembayaran VA" style="ellipse;whiteSpace=wrap;html=1;" vertex="1" parent="1">
          <mxGeometry x="410" y="270" width="90" height="60" as="geometry" />
        </mxCell>
        <mxCell id="4U3-XLHN7mHAFCMIfKig-26" style="edgeStyle=orthogonalEdgeStyle;rounded=0;orthogonalLoop=1;jettySize=auto;html=1;entryX=0.5;entryY=0;entryDx=0;entryDy=0;" edge="1" parent="1" source="4U3-XLHN7mHAFCMIfKig-13" target="4U3-XLHN7mHAFCMIfKig-14">
          <mxGeometry relative="1" as="geometry" />
        </mxCell>
        <mxCell id="4U3-XLHN7mHAFCMIfKig-13" value="Reverse proxy&lt;br&gt;port 8081" style="rounded=0;whiteSpace=wrap;html=1;" vertex="1" parent="1">
          <mxGeometry x="560" y="60" width="120" height="60" as="geometry" />
        </mxCell>
        <mxCell id="4U3-XLHN7mHAFCMIfKig-28" style="edgeStyle=orthogonalEdgeStyle;rounded=0;orthogonalLoop=1;jettySize=auto;html=1;entryX=0.5;entryY=0;entryDx=0;entryDy=0;" edge="1" parent="1" source="4U3-XLHN7mHAFCMIfKig-14" target="4U3-XLHN7mHAFCMIfKig-15">
          <mxGeometry relative="1" as="geometry" />
        </mxCell>
        <mxCell id="4U3-XLHN7mHAFCMIfKig-14" value="Aplikasi Gateway" style="rounded=0;whiteSpace=wrap;html=1;" vertex="1" parent="1">
          <mxGeometry x="560" y="160" width="120" height="60" as="geometry" />
        </mxCell>
        <mxCell id="4U3-XLHN7mHAFCMIfKig-29" style="edgeStyle=orthogonalEdgeStyle;rounded=0;orthogonalLoop=1;jettySize=auto;html=1;" edge="1" parent="1" source="4U3-XLHN7mHAFCMIfKig-15" target="4U3-XLHN7mHAFCMIfKig-16">
          <mxGeometry relative="1" as="geometry" />
        </mxCell>
        <mxCell id="4U3-XLHN7mHAFCMIfKig-15" value="Aplikasi Virtual Account" style="rounded=0;whiteSpace=wrap;html=1;" vertex="1" parent="1">
          <mxGeometry x="560" y="270" width="120" height="60" as="geometry" />
        </mxCell>
        <mxCell id="4U3-XLHN7mHAFCMIfKig-16" value="Database VA" style="shape=cylinder3;whiteSpace=wrap;html=1;boundedLbl=1;backgroundOutline=1;size=15;" vertex="1" parent="1">
          <mxGeometry x="740" y="260" width="60" height="80" as="geometry" />
        </mxCell>
        <mxCell id="4U3-XLHN7mHAFCMIfKig-17" value="" style="endArrow=classic;html=1;exitX=1;exitY=0.5;exitDx=0;exitDy=0;entryX=0;entryY=0.5;entryDx=0;entryDy=0;" edge="1" parent="1" source="4U3-XLHN7mHAFCMIfKig-2" target="4U3-XLHN7mHAFCMIfKig-10">
          <mxGeometry width="50" height="50" relative="1" as="geometry">
            <mxPoint x="480" y="70" as="sourcePoint" />
            <mxPoint x="530" y="20" as="targetPoint" />
          </mxGeometry>
        </mxCell>
        <mxCell id="4U3-XLHN7mHAFCMIfKig-25" value="SERVER" style="text;html=1;align=center;verticalAlign=middle;resizable=0;points=[];autosize=1;strokeColor=none;" vertex="1" parent="1">
          <mxGeometry x="650" y="20" width="60" height="20" as="geometry" />
        </mxCell>
        <mxCell id="4U3-XLHN7mHAFCMIfKig-30" value="Enkripsi" style="text;html=1;align=center;verticalAlign=middle;resizable=0;points=[];autosize=1;strokeColor=none;" vertex="1" parent="1">
          <mxGeometry x="340" y="60" width="60" height="20" as="geometry" />
        </mxCell>
        <mxCell id="4U3-XLHN7mHAFCMIfKig-31" value="Enkripsi" style="text;html=1;align=center;verticalAlign=middle;resizable=0;points=[];autosize=1;strokeColor=none;" vertex="1" parent="1">
          <mxGeometry x="350" y="170" width="60" height="20" as="geometry" />
        </mxCell>
        <mxCell id="4U3-XLHN7mHAFCMIfKig-32" value="Dekripsi" style="text;html=1;strokeColor=none;fillColor=none;align=center;verticalAlign=middle;whiteSpace=wrap;rounded=0;dashed=1;dashPattern=1 1;" vertex="1" parent="1">
          <mxGeometry x="630" y="230" width="40" height="20" as="geometry" />
        </mxCell>
      </root>
    </mxGraphModel>
  </diagram>
</mxfile>
